# xmcd
#
# Track frame offsets:
#	150
#	75227
#	126676
#	143628
#	175844
#	216334
#	244942
#	278329
#
# Disc length: 4524 seconds
#
# Revision: 2
# Processed by: cddbd v1.5PL3 Copyright (c) Steve Scherf et al.
# Submitted via: EZCDDA 4.3.2
#
DISCID=6d11aa08
DTITLE=Maceo Parker - Life on planet groove
DYEAR=1900
DGENRE=
TTITLE0=Shake everything you ve got
TTITLE1=Pass the peas
TTITLE2=I got you 
TTITLE3=Got to get u
TTITLE4=Addictive love
TTITLE5=Children s world
TTITLE6=Georgia on my mind
TTITLE7=Soul power
EXTD=
EXTT0=
EXTT1=
EXTT2=
EXTT3=
EXTT4=
EXTT5=
EXTT6=
EXTT7=
PLAYORDER=
